<svg width="32" height="32" viewBox="0 0 32 32" fill="none"
    xmlns="http://www.w3.org/2000/svg">
    <!-- Q letter with modern design -->
    <rect width="32" height="32" rx="6" fill="url(#gradient)"/>

    <!-- Gradient definition -->
    <defs>
        <linearGradient id="gradient" x1="0" y1="0" x2="32" y2="32" gradientUnits="userSpaceOnUse">
            <stop offset="0%" style="stop-color:#667eea;stop-opacity:1" />
            <stop offset="100%" style="stop-color:#764ba2;stop-opacity:1" />
        </linearGradient>
    </defs>

    <!-- Q letter -->
    <path d="M16 8C11.5817 8 8 11.5817 8 16C8 20.4183 11.5817 24 16 24C18.1217 24 20.0566 23.1571 21.5 21.7929L23.5 23.7929C23.7761 24.069 24.2239 24.069 24.5 23.7929C24.7761 23.5168 24.7761 23.069 24.5 22.7929L22.5 20.7929C23.7302 19.3065 24.5 17.3478 24.5 15.2C24.5 10.7817 20.9183 7.2 16.5 7.2C12.0817 7.2 8.5 10.7817 8.5 15.2C8.5 19.6183 12.0817 23.2 16.5 23.2C17.8807 23.2 19.1726 22.8494 20.2929 22.2359L21.7929 23.7359C22.069 24.012 22.5168 24.012 22.7929 23.7359C23.069 23.4598 23.069 23.012 22.7929 22.7359L21.2929 21.2359C22.4868 20.0904 23.3 18.5239 23.3 16.75C23.3 13.0221 20.2279 10 16.5 10C12.7721 10 9.7 13.0221 9.7 16.75C9.7 20.4779 12.7721 23.5 16.5 23.5C18.2739 23.5 19.8904 22.7868 21.0359 21.5929L22.5359 23.0929" fill="white" fill-rule="evenodd" clip-rule="evenodd"/>

    <!-- Simplified Q design -->
    <circle cx="16" cy="15" r="6" stroke="white" stroke-width="2.5" fill="none"/>
    <path d="M19 19L22 22" stroke="white" stroke-width="2.5" stroke-linecap="round"/>
</svg>
