<svg xmlns="http://www.w3.org/2000/svg" xmlns:xlink="http://www.w3.org/1999/xlink" contentStyleType="text/css" data-diagram-type="SEQUENCE" height="1137px" preserveAspectRatio="none" style="width:1134px;height:1137px;background:#FFFFFF;" version="1.1" viewBox="0 0 1134 1137" width="1134px" zoomAndPan="magnify"><title>JWT lifecycle: issue &#8594; use &#8594; refresh &#8594; revoke</title><defs/><g><text fill="#000000" font-family="sans-serif" font-size="14" font-weight="bold" lengthAdjust="spacing" textLength="333.498" x="396.2617" y="28.5352">JWT lifecycle: issue &#8594; use &#8594; refresh &#8594; revoke</text><g><title>User</title><rect fill="#000000" fill-opacity="0.00000" height="608.5215" width="8" x="19.1826" y="121.4648"/><line style="stroke:#181818;stroke-width:0.5;stroke-dasharray:5,5;" x1="23" x2="23" y1="121.4648" y2="729.9863"/></g><line style="stroke:#181818;stroke-width:0.5;stroke-dasharray:1,4;" x1="23" x2="23" y1="729.9863" y2="770.9414"/><g><title>User</title><rect fill="#000000" fill-opacity="0.00000" height="271.4844" width="8" x="19.1826" y="770.9414"/><line style="stroke:#181818;stroke-width:0.5;stroke-dasharray:5,5;" x1="23" x2="23" y1="770.9414" y2="1042.4258"/></g><g><title>Front-End</title><rect fill="#000000" fill-opacity="0.00000" height="608.5215" width="8" x="148.7314" y="121.4648"/><line style="stroke:#181818;stroke-width:0.5;stroke-dasharray:5,5;" x1="151.8184" x2="151.8184" y1="121.4648" y2="729.9863"/></g><line style="stroke:#181818;stroke-width:0.5;stroke-dasharray:1,4;" x1="151.8184" x2="151.8184" y1="729.9863" y2="770.9414"/><g><title>Front-End</title><rect fill="#000000" fill-opacity="0.00000" height="271.4844" width="8" x="148.7314" y="770.9414"/><line style="stroke:#181818;stroke-width:0.5;stroke-dasharray:5,5;" x1="151.8184" x2="151.8184" y1="770.9414" y2="1042.4258"/></g><g><title>Auth Service</title><rect fill="#000000" fill-opacity="0.00000" height="608.5215" width="8" x="409.4292" y="121.4648"/><line style="stroke:#181818;stroke-width:0.5;stroke-dasharray:5,5;" x1="413.231" x2="413.231" y1="121.4648" y2="729.9863"/></g><line style="stroke:#181818;stroke-width:0.5;stroke-dasharray:1,4;" x1="413.231" x2="413.231" y1="729.9863" y2="770.9414"/><g><title>Auth Service</title><rect fill="#000000" fill-opacity="0.00000" height="271.4844" width="8" x="409.4292" y="770.9414"/><line style="stroke:#181818;stroke-width:0.5;stroke-dasharray:5,5;" x1="413.231" x2="413.231" y1="770.9414" y2="1042.4258"/></g><g><title>Exchange API</title><rect fill="#000000" fill-opacity="0.00000" height="608.5215" width="8" x="640.9761" y="121.4648"/><line style="stroke:#181818;stroke-width:0.5;stroke-dasharray:5,5;" x1="644.5547" x2="644.5547" y1="121.4648" y2="729.9863"/></g><line style="stroke:#181818;stroke-width:0.5;stroke-dasharray:1,4;" x1="644.5547" x2="644.5547" y1="729.9863" y2="770.9414"/><g><title>Exchange API</title><rect fill="#000000" fill-opacity="0.00000" height="271.4844" width="8" x="640.9761" y="770.9414"/><line style="stroke:#181818;stroke-width:0.5;stroke-dasharray:5,5;" x1="644.5547" x2="644.5547" y1="770.9414" y2="1042.4258"/></g><g><title>DB</title><rect fill="#000000" fill-opacity="0.00000" height="608.5215" width="8" x="889.3911" y="121.4648"/><line style="stroke:#181818;stroke-width:0.5;stroke-dasharray:5,5;" x1="892.4658" x2="892.4658" y1="121.4648" y2="729.9863"/></g><line style="stroke:#181818;stroke-width:0.5;stroke-dasharray:1,4;" x1="892.4658" x2="892.4658" y1="729.9863" y2="770.9414"/><g><title>DB</title><rect fill="#000000" fill-opacity="0.00000" height="271.4844" width="8" x="889.3911" y="770.9414"/><line style="stroke:#181818;stroke-width:0.5;stroke-dasharray:5,5;" x1="892.4658" x2="892.4658" y1="770.9414" y2="1042.4258"/></g><g><title>Cache.Revocation List</title><rect fill="#000000" fill-opacity="0.00000" height="608.5215" width="8" x="1033.6689" y="121.4648"/><line style="stroke:#181818;stroke-width:0.5;stroke-dasharray:5,5;" x1="1037.3164" x2="1037.3164" y1="121.4648" y2="729.9863"/></g><line style="stroke:#181818;stroke-width:0.5;stroke-dasharray:1,4;" x1="1037.3164" x2="1037.3164" y1="729.9863" y2="770.9414"/><g><title>Cache.Revocation List</title><rect fill="#000000" fill-opacity="0.00000" height="271.4844" width="8" x="1033.6689" y="770.9414"/><line style="stroke:#181818;stroke-width:0.5;stroke-dasharray:5,5;" x1="1037.3164" x2="1037.3164" y1="770.9414" y2="1042.4258"/></g><g class="participant participant-head" data-participant="U"><text fill="#000000" font-family="sans-serif" font-size="14" lengthAdjust="spacing" textLength="30.3652" x="5" y="118.5117">User</text><ellipse cx="23.1826" cy="53.4766" fill="#E2E2F0" rx="8" ry="8" style="stroke:#181818;stroke-width:0.5;"/><path d="M23.1826,61.4766 L23.1826,88.4766 M10.1826,69.4766 L36.1826,69.4766 M23.1826,88.4766 L10.1826,103.4766 M23.1826,88.4766 L36.1826,103.4766" fill="none" style="stroke:#181818;stroke-width:0.5;"/></g><g class="participant participant-tail" data-participant="U"><text fill="#000000" font-family="sans-serif" font-size="14" lengthAdjust="spacing" textLength="30.3652" x="5" y="1054.9609">User</text><ellipse cx="23.1826" cy="1066.4141" fill="#E2E2F0" rx="8" ry="8" style="stroke:#181818;stroke-width:0.5;"/><path d="M23.1826,1074.4141 L23.1826,1101.4141 M10.1826,1082.4141 L36.1826,1082.4141 M23.1826,1101.4141 L10.1826,1116.4141 M23.1826,1101.4141 L36.1826,1116.4141" fill="none" style="stroke:#181818;stroke-width:0.5;"/></g><g class="participant participant-head" data-participant="FE"><rect fill="#E2E2F0" height="46.9766" rx="2.5" ry="2.5" style="stroke:#181818;stroke-width:0.5;" width="95.8262" x="104.8184" y="73.4883"/><text fill="#000000" font-family="sans-serif" font-size="14" lengthAdjust="spacing" textLength="68.9473" x="118.2578" y="94.0234">Front-End</text><text fill="#000000" font-family="sans-serif" font-size="14" lengthAdjust="spacing" textLength="81.8262" x="111.8184" y="110.5117">(React/Web)</text></g><g class="participant participant-tail" data-participant="FE"><rect fill="#E2E2F0" height="46.9766" rx="2.5" ry="2.5" style="stroke:#181818;stroke-width:0.5;" width="95.8262" x="104.8184" y="1041.4258"/><text fill="#000000" font-family="sans-serif" font-size="14" lengthAdjust="spacing" textLength="68.9473" x="118.2578" y="1061.9609">Front-End</text><text fill="#000000" font-family="sans-serif" font-size="14" lengthAdjust="spacing" textLength="81.8262" x="111.8184" y="1078.4492">(React/Web)</text></g><g class="participant participant-head" data-participant="AUTH"><rect fill="#E2E2F0" height="46.9766" rx="2.5" ry="2.5" style="stroke:#181818;stroke-width:0.5;" width="112.3965" x="357.231" y="73.4883"/><text fill="#000000" font-family="sans-serif" font-size="14" lengthAdjust="spacing" textLength="84.0342" x="371.4121" y="94.0234">Auth Service</text><text fill="#000000" font-family="sans-serif" font-size="14" lengthAdjust="spacing" textLength="98.3965" x="364.231" y="110.5117">(Fastify + JWT)</text></g><g class="participant participant-tail" data-participant="AUTH"><rect fill="#E2E2F0" height="46.9766" rx="2.5" ry="2.5" style="stroke:#181818;stroke-width:0.5;" width="112.3965" x="357.231" y="1041.4258"/><text fill="#000000" font-family="sans-serif" font-size="14" lengthAdjust="spacing" textLength="84.0342" x="371.4121" y="1061.9609">Auth Service</text><text fill="#000000" font-family="sans-serif" font-size="14" lengthAdjust="spacing" textLength="98.3965" x="364.231" y="1078.4492">(Fastify + JWT)</text></g><g class="participant participant-head" data-participant="API"><rect fill="#E2E2F0" height="46.9766" rx="2.5" ry="2.5" style="stroke:#181818;stroke-width:0.5;" width="104.8428" x="592.5547" y="73.4883"/><text fill="#000000" font-family="sans-serif" font-size="14" lengthAdjust="spacing" textLength="90.8428" x="599.5547" y="94.0234">Exchange API</text><text fill="#000000" font-family="sans-serif" font-size="14" lengthAdjust="spacing" textLength="56.4375" x="616.7573" y="110.5117">(Service)</text></g><g class="participant participant-tail" data-participant="API"><rect fill="#E2E2F0" height="46.9766" rx="2.5" ry="2.5" style="stroke:#181818;stroke-width:0.5;" width="104.8428" x="592.5547" y="1041.4258"/><text fill="#000000" font-family="sans-serif" font-size="14" lengthAdjust="spacing" textLength="90.8428" x="599.5547" y="1061.9609">Exchange API</text><text fill="#000000" font-family="sans-serif" font-size="14" lengthAdjust="spacing" textLength="56.4375" x="616.7573" y="1078.4492">(Service)</text></g><g class="participant participant-head" data-participant="DB"><text fill="#000000" font-family="sans-serif" font-size="14" lengthAdjust="spacing" textLength="18.5391" x="881.1216" y="102.0234">DB</text><text fill="#000000" font-family="sans-serif" font-size="14" lengthAdjust="spacing" textLength="93.8506" x="843.4658" y="118.5117">(RLS by orgId)</text><path d="M875.3911,52.4883 C875.3911,42.4883 893.3911,42.4883 893.3911,42.4883 C893.3911,42.4883 911.3911,42.4883 911.3911,52.4883 L911.3911,78.4883 C911.3911,88.4883 893.3911,88.4883 893.3911,88.4883 C893.3911,88.4883 875.3911,88.4883 875.3911,78.4883 L875.3911,52.4883" fill="#E2E2F0" style="stroke:#181818;stroke-width:0.5;"/><path d="M875.3911,52.4883 C875.3911,62.4883 893.3911,62.4883 893.3911,62.4883 C893.3911,62.4883 911.3911,62.4883 911.3911,52.4883" fill="none" style="stroke:#181818;stroke-width:0.5;"/></g><g class="participant participant-tail" data-participant="DB"><text fill="#000000" font-family="sans-serif" font-size="14" lengthAdjust="spacing" textLength="18.5391" x="881.1216" y="1054.9609">DB</text><text fill="#000000" font-family="sans-serif" font-size="14" lengthAdjust="spacing" textLength="93.8506" x="843.4658" y="1071.4492">(RLS by orgId)</text><path d="M875.3911,1084.4023 C875.3911,1074.4023 893.3911,1074.4023 893.3911,1074.4023 C893.3911,1074.4023 911.3911,1074.4023 911.3911,1084.4023 L911.3911,1110.4023 C911.3911,1120.4023 893.3911,1120.4023 893.3911,1120.4023 C893.3911,1120.4023 875.3911,1120.4023 875.3911,1110.4023 L875.3911,1084.4023" fill="#E2E2F0" style="stroke:#181818;stroke-width:0.5;"/><path d="M875.3911,1084.4023 C875.3911,1094.4023 893.3911,1094.4023 893.3911,1094.4023 C893.3911,1094.4023 911.3911,1094.4023 911.3911,1084.4023" fill="none" style="stroke:#181818;stroke-width:0.5;"/></g><g class="participant participant-head" data-participant="REV"><rect fill="#E2E2F0" height="30.4883" style="stroke:#181818;stroke-width:0.5;" width="164.7051" x="957.3164" y="85.9766"/><rect fill="#E2E2F0" height="30.4883" style="stroke:#181818;stroke-width:0.5;" width="164.7051" x="953.3164" y="89.9766"/><text fill="#000000" font-family="sans-serif" font-size="14" lengthAdjust="spacing" textLength="150.7051" x="960.3164" y="110.5117">Cache/Revocation List</text></g><g class="participant participant-tail" data-participant="REV"><rect fill="#E2E2F0" height="30.4883" style="stroke:#181818;stroke-width:0.5;" width="164.7051" x="957.3164" y="1041.4258"/><rect fill="#E2E2F0" height="30.4883" style="stroke:#181818;stroke-width:0.5;" width="164.7051" x="953.3164" y="1045.4258"/><text fill="#000000" font-family="sans-serif" font-size="14" lengthAdjust="spacing" textLength="150.7051" x="960.3164" y="1065.9609">Cache/Revocation List</text></g><rect fill="#EEEEEE" height="3" style="stroke:#EEEEEE;stroke-width:1;" width="1127.0215" x="0" y="152.1201"/><line style="stroke:#000000;stroke-width:1;" x1="0" x2="1127.0215" y1="152.1201" y2="152.1201"/><line style="stroke:#000000;stroke-width:1;" x1="0" x2="1127.0215" y1="155.1201" y2="155.1201"/><rect fill="#EEEEEE" height="23.3105" style="stroke:#000000;stroke-width:2;" width="55.4883" x="535.7666" y="141.4648"/><text fill="#000000" font-family="sans-serif" font-size="13" font-weight="bold" lengthAdjust="spacing" textLength="37.2036" x="541.7666" y="158.0332">Login</text><g class="message" data-participant-1="U" data-participant-2="FE"><polygon fill="#181818" points="140.7314,192.0859,150.7314,196.0859,140.7314,200.0859,144.7314,196.0859" style="stroke:#181818;stroke-width:1;"/><line style="stroke:#181818;stroke-width:1;" x1="23.1826" x2="146.7314" y1="196.0859" y2="196.0859"/><text fill="#000000" font-family="sans-serif" font-size="13" lengthAdjust="spacing" textLength="105.5488" x="30.1826" y="191.3438">Enter credentials</text></g><g class="message" data-participant-1="FE" data-participant-2="AUTH"><polygon fill="#181818" points="401.4292,221.3965,411.4292,225.3965,401.4292,229.3965,405.4292,225.3965" style="stroke:#181818;stroke-width:1;"/><line style="stroke:#181818;stroke-width:1;" x1="152.7314" x2="407.4292" y1="225.3965" y2="225.3965"/><text fill="#000000" font-family="sans-serif" font-size="13" lengthAdjust="spacing" textLength="225.0942" x="159.7314" y="220.6543">POST /auth/login {email, password}</text></g><g class="message" data-participant-1="AUTH" data-participant-2="AUTH"><line style="stroke:#181818;stroke-width:1;" x1="413.4292" x2="455.4292" y1="270.0176" y2="270.0176"/><line style="stroke:#181818;stroke-width:1;" x1="455.4292" x2="455.4292" y1="270.0176" y2="283.0176"/><line style="stroke:#181818;stroke-width:1;" x1="414.4292" x2="455.4292" y1="283.0176" y2="283.0176"/><polygon fill="#181818" points="424.4292,279.0176,414.4292,283.0176,424.4292,287.0176,420.4292,283.0176" style="stroke:#181818;stroke-width:1;"/><text fill="#000000" font-family="sans-serif" font-size="13" lengthAdjust="spacing" textLength="109.4019" x="420.4292" y="249.9648">Verify credentials</text><text fill="#000000" font-family="sans-serif" font-size="13" lengthAdjust="spacing" textLength="217.5469" x="420.4292" y="265.2754">Create claims {userId, orgId, roles}</text></g><g class="message" data-participant-1="AUTH" data-participant-2="FE"><polygon fill="#181818" points="163.7314,323.6387,153.7314,327.6387,163.7314,331.6387,159.7314,327.6387" style="stroke:#181818;stroke-width:1;"/><line style="stroke:#181818;stroke-width:1;" x1="157.7314" x2="412.4292" y1="327.6387" y2="327.6387"/><text fill="#000000" font-family="sans-serif" font-size="13" lengthAdjust="spacing" textLength="177.8169" x="169.7314" y="307.5859">200 {accessJWT, refreshJWT}</text><text fill="#000000" font-family="sans-serif" font-size="13" lengthAdjust="spacing" textLength="214.6968" x="169.7314" y="322.8965">(access: short ttl, refresh: long ttl)</text></g><rect fill="#EEEEEE" height="3" style="stroke:#EEEEEE;stroke-width:1;" width="1127.0215" x="0" y="356.2939"/><line style="stroke:#000000;stroke-width:1;" x1="0" x2="1127.0215" y1="356.2939" y2="356.2939"/><line style="stroke:#000000;stroke-width:1;" x1="0" x2="1127.0215" y1="359.2939" y2="359.2939"/><rect fill="#EEEEEE" height="23.3105" style="stroke:#000000;stroke-width:2;" width="138.7759" x="494.1228" y="345.6387"/><text fill="#000000" font-family="sans-serif" font-size="13" font-weight="bold" lengthAdjust="spacing" textLength="120.4912" x="500.1228" y="362.207">Use Access Token</text><g class="message" data-participant-1="U" data-participant-2="FE"><polygon fill="#181818" points="140.7314,396.2598,150.7314,400.2598,140.7314,404.2598,144.7314,400.2598" style="stroke:#181818;stroke-width:1;"/><line style="stroke:#181818;stroke-width:1;" x1="23.1826" x2="146.7314" y1="400.2598" y2="400.2598"/><text fill="#000000" font-family="sans-serif" font-size="13" lengthAdjust="spacing" textLength="92.5933" x="30.1826" y="395.5176">Perform action</text></g><g class="message" data-participant-1="FE" data-participant-2="API"><polygon fill="#181818" points="632.9761,440.8809,642.9761,444.8809,632.9761,448.8809,636.9761,444.8809" style="stroke:#181818;stroke-width:1;"/><line style="stroke:#181818;stroke-width:1;" x1="152.7314" x2="638.9761" y1="444.8809" y2="444.8809"/><text fill="#000000" font-family="sans-serif" font-size="13" lengthAdjust="spacing" textLength="163.2363" x="159.7314" y="424.8281">POST /orgs/:orgId/orders</text><text fill="#000000" font-family="sans-serif" font-size="13" lengthAdjust="spacing" textLength="202.833" x="159.7314" y="440.1387">Authorization: Bearer accessJWT</text></g><g class="message" data-participant-1="API" data-participant-2="API"><line style="stroke:#181818;stroke-width:1;" x1="644.9761" x2="686.9761" y1="520.123" y2="520.123"/><line style="stroke:#181818;stroke-width:1;" x1="686.9761" x2="686.9761" y1="520.123" y2="533.123"/><line style="stroke:#181818;stroke-width:1;" x1="645.9761" x2="686.9761" y1="533.123" y2="533.123"/><polygon fill="#181818" points="655.9761,529.123,645.9761,533.123,655.9761,537.123,651.9761,533.123" style="stroke:#181818;stroke-width:1;"/><text fill="#000000" font-family="sans-serif" font-size="13" lengthAdjust="spacing" textLength="111.2109" x="651.9761" y="469.4492">Auth middleware:</text><text fill="#000000" font-family="sans-serif" font-size="13" lengthAdjust="spacing" textLength="172.853" x="651.9761" y="484.7598">1) Verify signature &amp; expiry</text><text fill="#000000" font-family="sans-serif" font-size="13" lengthAdjust="spacing" textLength="125.0234" x="651.9761" y="500.0703">2) Check revocation</text><text fill="#000000" font-family="sans-serif" font-size="13" lengthAdjust="spacing" textLength="184.9326" x="651.9761" y="515.3809">3) Read claims {orgId, userId}</text></g><g class="message" data-participant-1="API" data-participant-2="API"><line style="stroke:#181818;stroke-width:1;" x1="644.9761" x2="686.9761" y1="562.4336" y2="562.4336"/><line style="stroke:#181818;stroke-width:1;" x1="686.9761" x2="686.9761" y1="562.4336" y2="575.4336"/><line style="stroke:#181818;stroke-width:1;" x1="645.9761" x2="686.9761" y1="575.4336" y2="575.4336"/><polygon fill="#181818" points="655.9761,571.4336,645.9761,575.4336,655.9761,579.4336,651.9761,575.4336" style="stroke:#181818;stroke-width:1;"/><text fill="#000000" font-family="sans-serif" font-size="13" lengthAdjust="spacing" textLength="206.1147" x="651.9761" y="557.6914">Validate URL orgId == JWT orgId</text></g><g class="message" data-participant-1="API" data-participant-2="DB"><polygon fill="#181818" points="881.3911,616.0547,891.3911,620.0547,881.3911,624.0547,885.3911,620.0547" style="stroke:#181818;stroke-width:1;"/><line style="stroke:#181818;stroke-width:1;" x1="644.9761" x2="887.3911" y1="620.0547" y2="620.0547"/><text fill="#000000" font-family="sans-serif" font-size="13" lengthAdjust="spacing" textLength="224.415" x="651.9761" y="600.002">Execute with app.orgId = JWT.orgId</text><text fill="#000000" font-family="sans-serif" font-size="13" lengthAdjust="spacing" textLength="191.1343" x="651.9761" y="615.3125">(RLS enforces tenant isolation)</text></g><g class="message" data-participant-1="DB" data-participant-2="API"><polygon fill="#181818" points="655.9761,645.3652,645.9761,649.3652,655.9761,653.3652,651.9761,649.3652" style="stroke:#181818;stroke-width:1;"/><line style="stroke:#181818;stroke-width:1;stroke-dasharray:2,2;" x1="649.9761" x2="892.3911" y1="649.3652" y2="649.3652"/><text fill="#000000" font-family="sans-serif" font-size="13" lengthAdjust="spacing" textLength="163.7505" x="661.9761" y="644.623">Rows scoped to JWT.orgId</text></g><g class="message" data-participant-1="API" data-participant-2="FE"><polygon fill="#181818" points="163.7314,674.6758,153.7314,678.6758,163.7314,682.6758,159.7314,678.6758" style="stroke:#181818;stroke-width:1;"/><line style="stroke:#181818;stroke-width:1;stroke-dasharray:2,2;" x1="157.7314" x2="643.9761" y1="678.6758" y2="678.6758"/><text fill="#000000" font-family="sans-serif" font-size="13" lengthAdjust="spacing" textLength="87.731" x="169.7314" y="673.9336">201 {order ...}</text></g><rect fill="#EEEEEE" height="3" style="stroke:#EEEEEE;stroke-width:1;" width="1127.0215" x="0" y="707.3311"/><line style="stroke:#000000;stroke-width:1;" x1="0" x2="1127.0215" y1="707.3311" y2="707.3311"/><line style="stroke:#000000;stroke-width:1;" x1="0" x2="1127.0215" y1="710.3311" y2="710.3311"/><rect fill="#EEEEEE" height="23.3105" style="stroke:#000000;stroke-width:2;" width="237.341" x="444.8402" y="696.6758"/><text fill="#000000" font-family="sans-serif" font-size="13" font-weight="bold" lengthAdjust="spacing" textLength="219.0564" x="450.8402" y="713.2441">Access Token Expired &#8658; Refresh</text><text fill="#000000" font-family="sans-serif" font-size="11" lengthAdjust="spacing" textLength="79.9326" x="490.4595" y="754.6211">sometime later</text><g class="message" data-participant-1="FE" data-participant-2="AUTH"><polygon fill="#181818" points="401.4292,788.252,411.4292,792.252,401.4292,796.252,405.4292,792.252" style="stroke:#181818;stroke-width:1;"/><line style="stroke:#181818;stroke-width:1;" x1="152.7314" x2="407.4292" y1="792.252" y2="792.252"/><text fill="#000000" font-family="sans-serif" font-size="13" lengthAdjust="spacing" textLength="203.582" x="159.7314" y="787.5098">POST /auth/refresh {refreshJWT}</text></g><g class="message" data-participant-1="AUTH" data-participant-2="AUTH"><line style="stroke:#181818;stroke-width:1;" x1="413.4292" x2="455.4292" y1="821.5625" y2="821.5625"/><line style="stroke:#181818;stroke-width:1;" x1="455.4292" x2="455.4292" y1="821.5625" y2="834.5625"/><line style="stroke:#181818;stroke-width:1;" x1="414.4292" x2="455.4292" y1="834.5625" y2="834.5625"/><polygon fill="#181818" points="424.4292,830.5625,414.4292,834.5625,424.4292,838.5625,420.4292,834.5625" style="stroke:#181818;stroke-width:1;"/><text fill="#000000" font-family="sans-serif" font-size="13" lengthAdjust="spacing" textLength="203.9565" x="420.4292" y="816.8203">Verify refresh, rotation, blacklist</text></g><g class="message" data-participant-1="AUTH" data-participant-2="FE"><polygon fill="#181818" points="163.7314,859.873,153.7314,863.873,163.7314,867.873,159.7314,863.873" style="stroke:#181818;stroke-width:1;"/><line style="stroke:#181818;stroke-width:1;" x1="157.7314" x2="412.4292" y1="863.873" y2="863.873"/><text fill="#000000" font-family="sans-serif" font-size="13" lengthAdjust="spacing" textLength="236.6978" x="169.7314" y="859.1309">200 {new accessJWT, new refreshJWT}</text></g><rect fill="#EEEEEE" height="3" style="stroke:#EEEEEE;stroke-width:1;" width="1127.0215" x="0" y="892.5283"/><line style="stroke:#000000;stroke-width:1;" x1="0" x2="1127.0215" y1="892.5283" y2="892.5283"/><line style="stroke:#000000;stroke-width:1;" x1="0" x2="1127.0215" y1="895.5283" y2="895.5283"/><rect fill="#EEEEEE" height="23.3105" style="stroke:#000000;stroke-width:2;" width="129.1973" x="498.9121" y="881.873"/><text fill="#000000" font-family="sans-serif" font-size="13" font-weight="bold" lengthAdjust="spacing" textLength="110.9126" x="504.9121" y="898.4414">Logout / Revoke</text><g class="message" data-participant-1="U" data-participant-2="FE"><polygon fill="#181818" points="140.7314,932.4941,150.7314,936.4941,140.7314,940.4941,144.7314,936.4941" style="stroke:#181818;stroke-width:1;"/><line style="stroke:#181818;stroke-width:1;" x1="23.1826" x2="146.7314" y1="936.4941" y2="936.4941"/><text fill="#000000" font-family="sans-serif" font-size="13" lengthAdjust="spacing" textLength="43.9385" x="30.1826" y="931.752">Logout</text></g><g class="message" data-participant-1="FE" data-participant-2="AUTH"><polygon fill="#181818" points="401.4292,961.8047,411.4292,965.8047,401.4292,969.8047,405.4292,965.8047" style="stroke:#181818;stroke-width:1;"/><line style="stroke:#181818;stroke-width:1;" x1="152.7314" x2="407.4292" y1="965.8047" y2="965.8047"/><text fill="#000000" font-family="sans-serif" font-size="13" lengthAdjust="spacing" textLength="199.748" x="159.7314" y="961.0625">POST /auth/logout {refreshJWT}</text></g><g class="message" data-participant-1="AUTH" data-participant-2="REV"><polygon fill="#181818" points="1025.6689,991.1152,1035.6689,995.1152,1025.6689,999.1152,1029.6689,995.1152" style="stroke:#181818;stroke-width:1;"/><line style="stroke:#181818;stroke-width:1;" x1="413.4292" x2="1031.6689" y1="995.1152" y2="995.1152"/><text fill="#000000" font-family="sans-serif" font-size="13" lengthAdjust="spacing" textLength="255.6772" x="420.4292" y="990.373">Mark refreshJWT (and its family) revoked</text></g><g class="message" data-participant-1="AUTH" data-participant-2="FE"><polygon fill="#181818" points="163.7314,1020.4258,153.7314,1024.4258,163.7314,1028.4258,159.7314,1024.4258" style="stroke:#181818;stroke-width:1;"/><line style="stroke:#181818;stroke-width:1;stroke-dasharray:2,2;" x1="157.7314" x2="412.4292" y1="1024.4258" y2="1024.4258"/><text fill="#000000" font-family="sans-serif" font-size="13" lengthAdjust="spacing" textLength="100.5596" x="169.7314" y="1019.6836">204 No Content</text></g><!--SRC=[VLHDRnen4BtlhnXngB8gWIJjQIKg0I4g5MqHWUJ2nTW3M7XjP9iGYhYsz_p4_9AElSjNbVIqNlkDPzwRD_RIAuHlZqDGSefymnLc89rR8Rp-Ve6LAxuMfnRTl5m_cGKc2UFUM1WvjC0SZ98birvokMJQG-NE6kqlErgCzSK02Lf_n4bQ2SYxpZcqkV9pk4Vx93aI-euvBwSR-1YgAYAQe-7NyvZECvypFKDezhiKKqQNw7ut4Sop2QFYAxUjK47l7YORC7RM5GNejfLmenHoBursK6apFiVwWAXn5hQW9vsFo47d8KaQ3UYPcTJGQ2GZkFn29223ZlP4dbiKgBraoYMqJOUXNZhk_xmVGfqHlRgAmLlCcLHLM3BdriQANHAHnuW7j87woOrZtRR8F09NJEOEjjGHsnNLWaiLh57eZlV4icwkhc3BE4VdICBgldcqtf4MnK46Rcwi1-_L0P21CdeMjjB8c5eBpOY68NNy7_9zj5DZSs1HmZtpVlT0d2fqzIpMIMk1biY4NXihVqMDCsWXiy4- -rgJ47-u9XeZbq8eN1Ck6-lhT2-HapFD_CeYV01yNagx6UkR5Dfpv8leqAADO_qf1VAVEEXNwbR8k3jF-C2K547iqQ1N24oKut34dptujXLw_unyHT2rf2BPSbahyG5Uh4lVeIQPY1zurC6xqXaLQqiJkkZoa7nWrWuSDqiKuCtncYBhiRVNWGEf2RLQRHVxTDQZJX23hdZzyqB4YwcblX4OdCdHono1yXVnx_frF-_R4- -yOzOI4Qpe8wygJ1JZ2qK3z8OlDQxXn9lXzpH7EMbcvQ4EW_ZIdDkkEFpVe8NOD-kcIIRmTsON9odXWca1qZkOibogJLg-Rw8CEnR_6NuOQDEpHgFv5m00]--></g></svg>